<?xml version="1.0" encoding="UTF-8"?>
<svg width="83" height="40" viewBox="0 0 83 40" version="1.1" xmlns="http://www.w3.org/2000/svg" role="img" aria-labelledby="ra-logo">
    <title id="ra-logo">RA logo</title>
    <g stroke="none" stroke-width="1" fill="none" fill-rule="evenodd">
        <path d="M82.0916755,32.0183388 C82.6483848,31.4853896 83,30.7385472 83,29.9050057 C83,29.1027722 82.6201633,28.3817076 82.1000177,27.8537534 L58.6652467,4.30025332 L51.5919418,11.4093942 L70.0425098,29.9534394 L43.9020234,29.9534394 C42.6241569,29.9149957 41.6114661,29.4840873 40.7546148,28.6494755 L29.0252041,16.8606394 C27.8089279,15.7046525 26.1427938,14.9731518 24.3363507,14.9731518 C24.3300497,14.9731518 24.3240149,14.974133 24.3185126,14.974133 L24.3185126,14.9731518 L10.0035499,14.9731518 L10.0035499,10.0538747 L24.829251,10.0538747 L24.829251,10.0548559 C27.7666844,10.056283 30.3875577,11.264539 32.3086617,13.2037605 L41.0576855,21.9970208 L48.1309904,14.88788 L39.2119276,5.92362994 C35.4838481,2.23374839 30.4490593,0 24.8040469,0 C24.7980121,0 24.791711,0.000356786071 24.7856763,0.000356786071 L24.7856763,0 L0,0 L0,25.0270265 L20.977902,25.0270265 L20.977902,25.0286321 C22.3422968,25.0384437 23.5741037,25.6024333 24.463525,26.5082239 L35.9510117,38.0542672 C37.1194533,39.2075781 38.6981718,39.934619 40.4487043,40 L72.1820199,40 C73.5178381,39.9824283 74.7243521,39.432621 75.6048988,38.550289 L82.0964679,32.0264557 L82.0916755,32.0183388" fill="currentColor"></path>
    </g>
</svg>
